<?xml version="1.0" standalone="no"?><!DOCTYPE svg PUBLIC "-//W3C//DTD SVG 1.1//EN" "http://www.w3.org/Graphics/SVG/1.1/DTD/svg11.dtd"><svg class="icon" width="200px" height="200.00px" viewBox="0 0 1024 1024" version="1.1" xmlns="http://www.w3.org/2000/svg"><path fill="#FFC0CB" d="M266.538667 694.186667l29.568-59.136L180.053333 170.666667H128a42.666667 42.666667 0 1 1 0-85.333334h85.333333a42.666667 42.666667 0 0 1 41.386667 32.298667L299.946667 298.666667H896a42.666667 42.666667 0 0 1 41.813333 51.029333l-42.666666 213.333333a42.666667 42.666667 0 0 1-31.445334 33.024l-341.333333 85.333334a42.666667 42.666667 0 0 1-20.736-82.773334l315.178667-78.805333L843.946667 384H321.28l61.44 245.632a42.666667 42.666667 0 0 1-3.242667 29.44l-42.666666 85.333333a42.624 42.624 0 0 1-7.936 11.093334 128 128 0 1 1-62.336-61.269334zM213.333333 853.333333a42.666667 42.666667 0 1 0 0-85.333333 42.666667 42.666667 0 0 0 0 85.333333z m597.333334 85.333334a128 128 0 1 1 0-256 128 128 0 0 1 0 256z m0-85.333334a42.666667 42.666667 0 1 0 0-85.333333 42.666667 42.666667 0 0 0 0 85.333333z" /></svg>